<?xml version="1.0" encoding="utf-8"?>
<!-- Generator: Adobe Illustrator 26.3.1, SVG Export Plug-In . SVG Version: 6.00 Build 0)  -->
<svg version="1.1" id="구성_요소_93_5" xmlns="http://www.w3.org/2000/svg" xmlns:xlink="http://www.w3.org/1999/xlink" x="0px"
	 y="0px" width="24px" height="24px" viewBox="0 0 24 24" style="enable-background:new 0 0 24 24;" xml:space="preserve">
<style type="text/css">
	.st0{fill:#999999;}
</style>
<g id="Layer_28">
	<path class="st0" d="M12,22C6.5,22,2,17.5,2,12S6.5,2,12,2s10,4.5,10,10S17.5,22,12,22z M12,3.3c-4.8,0-8.7,3.9-8.7,8.7
		s3.9,8.7,8.7,8.7s8.7-3.9,8.7-8.7S16.8,3.3,12,3.3z"/>
	<path class="st0" d="M10.4,16c-0.2,0-0.4-0.1-0.5-0.2l-3.1-3.3c-0.2-0.3-0.2-0.7,0.1-0.9c0.3-0.2,0.6-0.2,0.9,0l2.6,2.8l5.7-6.1
		c0.2-0.3,0.7-0.3,0.9-0.1c0.3,0.2,0.3,0.7,0.1,0.9c0,0,0,0-0.1,0.1l-6.2,6.7C10.8,15.9,10.6,16,10.4,16z"/>
</g>
</svg>
