<svg xmlns="http://www.w3.org/2000/svg" width="133.219" height="123.822" viewBox="0 0 133.219 123.822">
  <g id="그룹_1405" data-name="그룹 1405" transform="translate(-1410.835 -662.988)" opacity="0.1">
    <g id="그룹_1406" data-name="그룹 1406" transform="translate(54.61)">
      <path id="교차_2" data-name="교차 2" d="M92.929,123.777l24.742-19.582c2.588-2.163,3.393-2.776,3.393-4.472V10.859L133.217,0h0V104.423a6.064,6.064,0,0,1-1.523,4.051,5.882,5.882,0,0,1-.876.816l-18.3,14.486Zm-72.223,0L2.4,109.291a5.906,5.906,0,0,1-.879-.816A6.059,6.059,0,0,1,0,104.423V0H18.868L63.6,39.964l-9.38,8.474L12.155,10.859V99.723c0,1.7.806,2.309,3.392,4.472l24.744,19.582Zm78.2-35.408L69.75,62.315l9.38-8.474,38.645,34.528Z" transform="translate(1356.226 663.033)" fill="#1d3661"/>
      <path id="패스_900" data-name="패스 900" d="M98.908,0,0,88.371H18.863L117.775,0Z" transform="translate(1371.67 662.988)" fill="#54dad2"/>
    </g>
  </g>
</svg>
