<?xml version="1.0" encoding="UTF-8"?><svg id="FOX_EDU_LOGO_black_v2_211013" xmlns="http://www.w3.org/2000/svg" width="193.26" height="45.7" viewBox="0 0 193.26 45.7"><path d="M57.66,32.91V12.83h12.38v3.13h-8.35v5.59h6.5v3.16h-6.5v8.2h-4.03Z" fill="#203462"/><path d="M87.76,30.61c-1.67,1.75-3.85,2.62-6.56,2.62s-4.87-.85-6.49-2.56c-1.62-1.71-2.43-4.19-2.43-7.45v-.67c0-3.22.83-5.7,2.5-7.44,1.67-1.74,3.85-2.61,6.56-2.61s4.87.85,6.49,2.55c1.62,1.7,2.43,4.19,2.43,7.47v.64c0,3.22-.83,5.7-2.5,7.45ZM81.28,30.07c1.55,0,2.73-.58,3.54-1.74s1.21-2.76,1.21-4.79v-1c0-2.28-.38-4-1.15-5.15-.77-1.15-1.99-1.74-3.68-1.76-1.52,0-2.67.58-3.46,1.74-.8,1.16-1.19,2.76-1.19,4.79v1.02c0,4.59,1.58,6.88,4.74,6.88h0Z" fill="#203462"/><path d="M92.1,32.91l6.1-10.31-5.68-9.78h4.49l4.03,7.08h.08l3.86-7.08h4l-5.54,9.72,5.93,10.36h-4.49l-4.32-7.55h-.11l-4.29,7.55h-4.09.03Z" fill="#203462"/><path d="M22.85,0C10.22,0,0,10.24,0,22.87c0,12.63,10.23,22.83,22.85,22.83h0c4.33,0,8.38-1.21,11.83-3.3.38-.23.8-.35,1.24-.35.16,0,.32.02.48.05l5.84,1.22c.06,0,.13.02.19.02.56,0,1.02-.52.9-1.11l-1.22-5.84c-.12-.59-.02-1.21.3-1.72,2.09-3.45,3.3-7.5,3.3-11.83C45.7,10.23,35.5,0,22.87,0h-.02Z" fill="#54dad2"/><path d="M29.8,12.57l-6.74,6.31c-.11.11-.29.11-.41,0l-6.74-6.31c-.16-.15-.38-.24-.61-.24h-.79c-.16,0-.29.12-.29.27v14.49c0,.21.09.42.25.57l8.19,7.66c.11.11.29.11.41,0l8.19-7.66c.16-.15.25-.36.25-.57v-14.49c0-.15-.13-.27-.29-.27h-.79c-.23,0-.45.09-.61.24h-.02Z" fill="#fff"/><path d="M126.36,32.93c-2.7,0-4.9-.8-6.4-2.5s-2.3-4.2-2.3-7.5v-.7c0-1.7.2-3.3.7-4.5.5-1.3,1.1-2.3,2-3.1.8-.8,1.8-1.3,2.9-1.7s2.3-.5,3.6-.5c2,0,3.6.4,4.9,1.1v2.2c-1.8-.7-3.5-1-5.1-1-1.9,0-3.4.6-4.5,1.8-1.1,1.2-1.7,3-1.7,5.5v1.1c0,5.2,2.1,7.8,6.3,7.8,1.6,0,3.4-.4,5.2-1.3v2.2c-1.5.7-3.3,1.1-5.6,1.1Z" fill="#54dad2"/><path d="M135.46,32.63V12.83h2.6v17.6h8.8v2.2h-11.4Z" fill="#54dad2"/><path d="M148.06,32.63l7.3-19.8h2.5l7.2,19.8h-2.7l-2-5.6h-7.8l-2,5.6h-2.5ZM156.26,16.33l-3,8.6h6.2l-3.2-8.6h0Z" fill="#54dad2"/><path d="M177.06,31.43c-1.1,1-2.8,1.6-5,1.6s-4.2-.4-5.7-1.3v-2.2c1.7.9,3.5,1.3,5.6,1.3,2.8,0,4.2-1.1,4.2-3.4,0-.9-.2-1.6-.7-2.1s-1.3-.9-2.5-1.4l-2.1-.7c-1.4-.5-2.5-1.1-3.2-2-.7-.8-1.1-2-1.1-3.5,0-1.6.5-2.9,1.6-3.9s2.6-1.5,4.7-1.5c1.8,0,3.4.4,4.9,1.1v2.2c-1.6-.7-3.2-1.1-4.9-1.1-1.1,0-2,.3-2.7.8-.6.5-.9,1.2-.9,2.1s.2,1.6.6,2.1c.4.5,1.1.9,2.1,1.2l2,.7c1.6.5,2.8,1.2,3.6,2s1.2,2,1.2,3.6c0,1.9-.6,3.4-1.7,4.4Z" fill="#54dad2"/><path d="M191.56,31.43c-1.1,1-2.8,1.6-5,1.6s-4.2-.4-5.7-1.3v-2.2c1.7.9,3.5,1.3,5.6,1.3,2.8,0,4.2-1.1,4.2-3.4,0-.9-.2-1.6-.7-2.1s-1.3-.9-2.5-1.4l-2.1-.7c-1.4-.5-2.5-1.1-3.2-2-.7-.8-1.1-2-1.1-3.5,0-1.6.5-2.9,1.6-3.9s2.6-1.5,4.7-1.5c1.8,0,3.4.4,4.9,1.1v2.2c-1.6-.6-3.2-1-4.9-1-1.1,0-2,.3-2.7.8-.6.5-.9,1.3-.9,2.2s.2,1.6.6,2.1c.4.5,1.1.9,2.1,1.2l2,.7c1.6.5,2.8,1.2,3.6,2s1.2,2,1.2,3.6c0,1.7-.6,3.2-1.7,4.2Z" fill="#54dad2"/></svg>